<svg width="128" height="128" viewBox="0 0 128 128" fill="none" xmlns="http://www.w3.org/2000/svg">
<rect width="128" height="128" fill="#F4F8F1"/>
<path d="M20.1 48.62L25.7 48.5C25.9133 48.5 26.02 48.7267 26.02 49.18C26.02 49.6333 25.9133 49.86 25.7 49.86H23.98C23.3133 49.86 22.8733 49.9933 22.66 50.26C22.4467 50.5 22.34 50.98 22.34 51.7V73.9H24.66C28.9 73.9 31.8333 73.34 33.46 72.22L33.74 70.02C33.7933 69.8067 34.02 69.7 34.42 69.7C34.8467 69.7 35.06 69.78 35.06 69.94L34.7 76.38C34.7 76.5667 34.4867 76.66 34.06 76.66C33.66 76.66 33.46 76.5667 33.46 76.38V75.5H20.46L14.86 75.58C14.6467 75.58 14.54 75.3533 14.54 74.9C14.54 74.4467 14.6467 74.22 14.86 74.22H16.58C17.2467 74.22 17.6867 74.1 17.9 73.86C18.1133 73.5933 18.22 73.1 18.22 72.38V53.42C18.22 51.0733 17.94 49.9 17.38 49.9H15.06C14.8467 49.9 14.74 49.6867 14.74 49.26C14.74 48.8067 14.8467 48.58 15.06 48.58C15.06 48.58 16.74 48.5933 20.1 48.62ZM41.7459 75.46L37.1059 75.58C36.9193 75.58 36.8259 75.38 36.8259 74.98C36.8259 74.58 36.8926 74.38 37.0259 74.38H39.3459C39.6659 74.38 39.8259 74.1533 39.8259 73.7V64.3C39.8259 61.7133 39.4526 60.42 38.7059 60.42H37.9059C37.6926 60.42 37.5859 60.22 37.5859 59.82C37.5859 59.42 37.6659 59.22 37.8259 59.22C39.0526 59.22 40.3859 58.5133 41.8259 57.1C42.3326 56.62 42.6526 56.38 42.7859 56.38C43.1859 56.38 43.3859 56.54 43.3859 56.86C43.3859 57.0733 43.3593 57.7933 43.3059 59.02C43.2526 60.22 43.2259 61.7533 43.2259 63.62V70.78C43.2259 73.1267 43.5059 74.3 44.0659 74.3H46.0259C46.2393 74.3 46.3459 74.5 46.3459 74.9C46.3459 75.3 46.2659 75.5 46.1059 75.5L41.7459 75.46ZM43.1859 49.98C43.1859 50.5667 42.9859 51.0733 42.5859 51.5C42.1859 51.9 41.6926 52.1 41.1059 52.1C40.5193 52.1 39.9993 51.9 39.5459 51.5C39.1193 51.1 38.9059 50.6067 38.9059 50.02C38.9059 49.4067 39.1059 48.8867 39.5059 48.46C39.9326 48.0333 40.4393 47.82 41.0259 47.82C41.6393 47.82 42.1459 48.0333 42.5459 48.46C42.9726 48.86 43.1859 49.3667 43.1859 49.98ZM62.94 58.06L65.86 57.98C66.0467 57.98 66.14 58.1533 66.14 58.5C66.14 58.8467 66.0467 59.02 65.86 59.02H64.82C64.5267 59.02 64.3133 59.14 64.18 59.38C63.4333 60.6067 62.26 63.3133 60.66 67.5C59.0867 71.66 58.0733 74.5133 57.62 76.06C57.5133 76.3 57.2467 76.42 56.82 76.42C56.42 76.42 56.1667 76.2867 56.06 76.02C55.4467 73.54 53.2733 68.3933 49.54 60.58C49.22 59.94 48.9267 59.5267 48.66 59.34C48.3933 59.1533 47.98 59.06 47.42 59.06C47.26 59.06 47.18 58.8867 47.18 58.54C47.18 58.1667 47.26 57.98 47.42 57.98L51.22 58.06C51.22 58.06 52.66 58.0333 55.54 57.98C55.7 57.98 55.78 58.1533 55.78 58.5C55.78 58.8467 55.7 59.02 55.54 59.02H53.62C53.3267 59.02 53.18 59.14 53.18 59.38C53.18 59.5133 53.4467 60.2733 53.98 61.66C55.8733 66.62 57.1267 69.98 57.74 71.74C58.22 70.0867 58.7933 68.3133 59.46 66.42C60.1267 64.5267 60.62 63.0733 60.94 62.06C61.2867 61.0467 61.46 60.3 61.46 59.82C61.46 59.3133 61.3 59.06 60.98 59.06H59.34C59.1267 59.06 59.02 58.8867 59.02 58.54C59.02 58.1667 59.1 57.98 59.26 57.98L62.94 58.06ZM76.8575 72.62C77.8708 72.62 78.7508 72.5133 79.4975 72.3C80.2442 72.0867 80.7908 71.8467 81.1375 71.58L82.0175 70.86C82.2842 70.6467 82.4842 70.54 82.6175 70.54C82.9108 70.54 83.0575 70.7 83.0575 71.02C83.0575 71.6067 82.5375 72.5133 81.4975 73.74C80.9908 74.3533 80.2308 74.8867 79.2175 75.34C78.2042 75.7933 77.0708 76.02 75.8175 76.02C73.4708 76.02 71.4975 75.14 69.8975 73.38C68.2975 71.62 67.4975 69.5933 67.4975 67.3C67.4975 64.42 68.4442 62.0733 70.3375 60.26C72.2308 58.4467 74.3242 57.54 76.6175 57.54C78.3508 57.54 79.8042 58.1667 80.9775 59.42C82.1775 60.6467 82.7775 62.2733 82.7775 64.3C82.7775 64.7267 82.6842 65.0333 82.4975 65.22C82.3108 65.38 81.8842 65.4867 81.2175 65.54C80.5508 65.5667 78.9242 65.5933 76.3375 65.62C73.7508 65.6467 71.5242 65.7133 69.6575 65.82C69.6575 68.0867 70.3908 69.7933 71.8575 70.94C73.3508 72.06 75.0175 72.62 76.8575 72.62ZM79.3775 63.06C79.3775 62.1533 79.0042 61.3667 78.2575 60.7C77.5108 60.0333 76.5375 59.7 75.3375 59.7C74.1642 59.7 73.0175 60.14 71.8975 61.02C70.7775 61.8733 70.0708 63.06 69.7775 64.58C70.4708 64.5 71.8708 64.38 73.9775 64.22C76.0842 64.0333 77.5108 63.9 78.2575 63.82C79.0042 63.7133 79.3775 63.46 79.3775 63.06ZM92.3703 46.1L92.3303 61.3V70.78C92.3303 73.1267 92.6103 74.3 93.1703 74.3H95.1303C95.3436 74.3 95.4503 74.5 95.4503 74.9C95.4503 75.3 95.3703 75.5 95.2103 75.5C95.2103 75.5 93.757 75.4867 90.8503 75.46L86.2103 75.58C86.0236 75.58 85.9303 75.38 85.9303 74.98C85.9303 74.58 85.997 74.38 86.1303 74.38H88.4503C88.7703 74.38 88.9303 74.1533 88.9303 73.7V52.14C88.9303 49.5533 88.597 48.26 87.9303 48.26H86.1303C85.917 48.26 85.8103 48.06 85.8103 47.66C85.8103 47.26 85.8903 47.06 86.0503 47.06C87.1436 47.06 88.0236 46.9667 88.6903 46.78C89.357 46.5667 89.8236 46.42 90.0903 46.34C90.357 46.2333 90.677 46.1 91.0503 45.94C91.4503 45.7533 91.6903 45.6467 91.7703 45.62C92.1703 45.62 92.3703 45.78 92.3703 46.1ZM112.283 58.06L115.203 57.98C115.39 57.98 115.483 58.1533 115.483 58.5C115.483 58.8467 115.39 59.02 115.203 59.02H114.203C113.883 59.02 113.63 59.2067 113.443 59.58C112.217 61.9267 110.79 65.38 109.163 69.94C107.537 74.5 106.563 77.1933 106.243 78.02C103.683 84.6333 100.697 87.94 97.2834 87.94C96.0568 87.94 95.2301 87.6067 94.8034 86.94C94.6968 86.7267 94.6434 86.42 94.6434 86.02C94.6434 85.62 94.9501 85.06 95.5634 84.34C96.3368 84.8733 97.2034 85.14 98.1634 85.14C99.1501 85.14 100.19 84.5133 101.283 83.26C102.403 82.0333 103.283 80.7133 103.923 79.3C104.563 77.9133 104.883 76.8733 104.883 76.18C104.883 75.4867 104.75 74.66 104.483 73.7C104.217 72.7133 103.817 71.5667 103.283 70.26C102.75 68.9533 102.283 67.8467 101.883 66.94C101.483 66.0067 100.923 64.7933 100.203 63.3C99.5101 61.8067 99.0434 60.82 98.8034 60.34C98.5901 59.8333 98.3501 59.5 98.0834 59.34C97.8168 59.1533 97.3768 59.06 96.7634 59.06C96.6034 59.06 96.5234 58.8867 96.5234 58.54C96.5234 58.1667 96.6034 57.98 96.7634 57.98L100.563 58.06L104.883 57.98C105.043 57.98 105.123 58.1533 105.123 58.5C105.123 58.8467 105.043 59.02 104.883 59.02H103.083C102.737 59.02 102.563 59.1267 102.563 59.34C102.563 59.5267 102.763 60.1667 103.163 61.26C103.59 62.3267 104.19 63.8867 104.963 65.94C105.763 67.9933 106.47 69.9267 107.083 71.74C107.537 70.1933 108.097 68.4733 108.763 66.58C109.457 64.66 109.977 63.1667 110.323 62.1C110.67 61.0333 110.843 60.26 110.843 59.78C110.843 59.3 110.67 59.06 110.323 59.06H108.443C108.31 59.06 108.243 58.8867 108.243 58.54C108.243 58.1667 108.31 57.98 108.443 57.98L112.283 58.06Z" fill="#426B29"/>
</svg>
